<?xml version="1.0" encoding="UTF-8"?>
<!DOCTYPE svg PUBLIC "-//W3C//DTD SVG 1.1//EN" "http://www.w3.org/Graphics/SVG/1.1/DTD/svg11.dtd">
<!-- Creator: CorelDRAW -->
<svg xmlns="http://www.w3.org/2000/svg" xml:space="preserve" width="7.7497mm" height="7.7497mm" version="1.1" style="shape-rendering:geometricPrecision; text-rendering:geometricPrecision; image-rendering:optimizeQuality; fill-rule:evenodd; clip-rule:evenodd"
viewBox="0 0 11.94 11.94"
 xmlns:xlink="http://www.w3.org/1999/xlink"
 xmlns:xodm="http://www.corel.com/coreldraw/odm/2003">
 <defs>
  <style type="text/css">
   <![CDATA[
    .fil0 {fill:#E4EEE6}
   ]]>
  </style>
 </defs>
 <g id="Layer_x0020_1">
  <metadata id="CorelCorpID_0Corel-Layer"/>
  <path class="fil0" d="M3.08 0l5.78 0c1.7,0 3.08,1.39 3.08,3.08l0 5.78c0,1.7 -1.39,3.08 -3.08,3.08l-5.78 0c-1.7,0 -3.08,-1.39 -3.08,-3.08l0 -5.78c0,-1.7 1.39,-3.08 3.08,-3.08zm2.89 1.6c2.47,0 4.47,2.01 4.47,4.48 0,1.98 -1.28,3.66 -3.05,4.25 -0.23,0.04 -0.31,-0.1 -0.31,-0.22 0,-0.15 0.01,-0.63 0.01,-1.23 0,-0.42 -0.14,-0.69 -0.3,-0.83 0.99,-0.11 2.04,-0.49 2.04,-2.21 0,-0.49 -0.17,-0.89 -0.46,-1.2 0.05,-0.11 0.2,-0.57 -0.04,-1.19 0,0 -0.37,-0.12 -1.23,0.46 -0.36,-0.1 -0.74,-0.15 -1.12,-0.15 -0.38,0 -0.76,0.05 -1.12,0.15 -0.85,-0.58 -1.23,-0.46 -1.23,-0.46 -0.24,0.62 -0.09,1.07 -0.04,1.19 -0.29,0.31 -0.46,0.71 -0.46,1.2 0,1.72 1.04,2.1 2.03,2.22 -0.13,0.11 -0.24,0.31 -0.28,0.6 -0.25,0.11 -0.9,0.31 -1.3,-0.37 0,0 -0.24,-0.43 -0.68,-0.46 0,0 -0.44,-0.01 -0.03,0.27 0,0 0.29,0.14 0.5,0.66 0,0 0.26,0.87 1.5,0.6 0,0.37 0.01,0.66 0.01,0.76 0,0.12 -0.08,0.26 -0.3,0.22 -1.77,-0.59 -3.05,-2.27 -3.05,-4.25 0,-2.48 2,-4.48 4.46,-4.48z"/>
 </g>
</svg>
