<?xml version="1.0" encoding="UTF-8"?>
<!DOCTYPE svg PUBLIC "-//W3C//DTD SVG 1.1//EN" "http://www.w3.org/Graphics/SVG/1.1/DTD/svg11.dtd">
<!-- Creator: CorelDRAW -->
<svg xmlns="http://www.w3.org/2000/svg" xml:space="preserve" width="7.7497mm" height="7.7497mm" version="1.1" style="shape-rendering:geometricPrecision; text-rendering:geometricPrecision; image-rendering:optimizeQuality; fill-rule:evenodd; clip-rule:evenodd"
viewBox="0 0 11.94 11.94"
 xmlns:xlink="http://www.w3.org/1999/xlink"
 xmlns:xodm="http://www.corel.com/coreldraw/odm/2003">
 <defs>
  <style type="text/css">
   <![CDATA[
    .fil0 {fill:#E4EEE6}
   ]]>
  </style>
 </defs>
 <g id="Layer_x0020_1">
  <metadata id="CorelCorpID_0Corel-Layer"/>
  <path class="fil0" d="M3.08 0l5.78 0c1.7,0 3.08,1.39 3.08,3.08l0 5.78c0,1.7 -1.39,3.08 -3.08,3.08l-5.78 0c-1.7,0 -3.08,-1.39 -3.08,-3.08l0 -5.78c0,-1.7 1.39,-3.08 3.08,-3.08zm3.3 5.37c0.11,-0.12 0.2,-0.24 0.31,-0.35 0.34,-0.32 0.74,-0.48 1.21,-0.48 0.26,0 0.51,0.02 0.76,0.09 0.57,0.16 0.9,0.55 1.06,1.11 0.12,0.42 0.14,0.84 0.14,1.27 0,0.9 -0,1.81 0,2.71 0,0.08 -0.02,0.11 -0.11,0.11 -0.47,-0 -0.93,-0 -1.4,0 -0.08,0 -0.1,-0.02 -0.1,-0.1 0,-0.86 0,-1.72 0,-2.58 0,-0.22 -0.01,-0.43 -0.07,-0.64 -0.11,-0.39 -0.39,-0.58 -0.79,-0.56 -0.55,0.03 -0.84,0.3 -0.91,0.87 -0.02,0.13 -0.02,0.27 -0.02,0.4 0,0.84 0,1.68 0,2.51 0,0.08 -0.02,0.11 -0.11,0.11 -0.47,-0 -0.94,-0 -1.41,0 -0.07,0 -0.1,-0.02 -0.1,-0.09 0,-1.66 0,-3.32 0,-4.97 0,-0.08 0.03,-0.1 0.11,-0.1 0.45,0 0.89,0 1.34,0 0.08,0 0.1,0.02 0.1,0.11 -0,0.2 0,0.4 0,0.59l-0 0zm-2.43 -2.34c0,0.52 -0.42,0.93 -0.93,0.94 -0.51,0 -0.93,-0.42 -0.93,-0.93 -0,-0.51 0.42,-0.93 0.93,-0.93 0.51,0 0.93,0.42 0.93,0.93l0 -0zm-0.13 4.24c0,0.82 0,1.64 0,2.46 0,0.09 -0.02,0.12 -0.12,0.12 -0.47,-0.01 -0.93,-0 -1.4,0 -0.07,0 -0.1,-0.02 -0.1,-0.09 0,-1.66 0,-3.32 0,-4.98 0,-0.07 0.02,-0.09 0.09,-0.09 0.47,0 0.95,0 1.42,0 0.09,0 0.1,0.04 0.1,0.11 -0,0.83 0,1.65 0,2.48l0 -0.01z"/>
 </g>
</svg>
