<?xml version="1.0" encoding="UTF-8"?>
<!DOCTYPE svg PUBLIC "-//W3C//DTD SVG 1.1//EN" "http://www.w3.org/Graphics/SVG/1.1/DTD/svg11.dtd">
<!-- Creator: CorelDRAW -->
<svg xmlns="http://www.w3.org/2000/svg" xml:space="preserve" width="7.7497mm" height="7.7497mm" version="1.1" style="shape-rendering:geometricPrecision; text-rendering:geometricPrecision; image-rendering:optimizeQuality; fill-rule:evenodd; clip-rule:evenodd"
viewBox="0 0 13.1 13.1"
 xmlns:xlink="http://www.w3.org/1999/xlink"
 xmlns:xodm="http://www.corel.com/coreldraw/odm/2003">
 <defs>
  <style type="text/css">
   <![CDATA[
    .fil0 {fill:#E4EEE6}
   ]]>
  </style>
 </defs>
 <g id="Layer_x0020_1">
  <metadata id="CorelCorpID_0Corel-Layer"/>
  <path class="fil0" d="M3.38 0l6.34 0c1.86,0 3.38,1.52 3.38,3.38l0 6.34c0,1.86 -1.52,3.38 -3.38,3.38l-6.34 0c-1.86,0 -3.38,-1.52 -3.38,-3.38l0 -6.34c0,-1.86 1.52,-3.38 3.38,-3.38zm3.8 10.17c-0.21,0.04 -0.42,0.06 -0.51,0.05 -0.79,0 -1.42,-0.17 -2.01,-0.52 -0.08,-0.05 -0.15,-0.07 -0.23,-0.04 -0.4,0.1 -0.8,0.21 -1.2,0.31 -0.08,0.02 -0.09,0.01 -0.07,-0.08 0.11,-0.37 0.21,-0.74 0.32,-1.13 0.02,-0.1 0.02,-0.18 -0.05,-0.26 -0.81,-1.31 -0.77,-2.94 0.13,-4.15 0.94,-1.26 2.24,-1.78 3.77,-1.45 1.52,0.32 2.49,1.31 2.83,2.81 0.49,2.07 -0.9,4.12 -2.99,4.46l0 -0zm0.54 -1.53c-0.16,0.01 -0.31,-0.01 -0.46,-0.06 -1.02,-0.3 -1.79,-0.92 -2.41,-1.78 -0.23,-0.31 -0.45,-0.65 -0.52,-1.05 -0.09,-0.46 0.05,-0.88 0.4,-1.19 0.12,-0.11 0.46,-0.16 0.6,-0.09 0.04,0.04 0.07,0.08 0.1,0.12 0.13,0.32 0.26,0.61 0.39,0.91 0.02,0.06 0.02,0.13 -0.02,0.19 -0.07,0.14 -0.17,0.25 -0.27,0.37 -0.09,0.07 -0.09,0.16 -0.03,0.25 0.37,0.61 0.86,1.05 1.52,1.31 0.1,0.04 0.17,0.02 0.23,-0.05 0.12,-0.13 0.23,-0.28 0.33,-0.42 0.06,-0.09 0.15,-0.1 0.25,-0.06 0.22,0.1 0.43,0.2 0.64,0.3 0.06,0.03 0.1,0.05 0.15,0.07 0.22,0.11 0.22,0.13 0.2,0.36 -0.03,0.47 -0.39,0.7 -0.8,0.82 -0.11,0.02 -0.2,0.02 -0.3,0.01l-0 -0zm3.18 -3.14c-0.49,-2.03 -2.24,-3.42 -4.35,-3.45 -0.28,0.01 -0.58,0.03 -0.85,0.09 -2.96,0.59 -4.49,3.86 -3.06,6.5 0.05,0.08 0.05,0.14 0.04,0.22 -0.21,0.68 -0.4,1.38 -0.59,2.07 -0.03,0.12 -0.03,0.12 0.08,0.09 0.72,-0.2 1.44,-0.38 2.16,-0.56 0.06,-0.02 0.11,-0.02 0.16,0.01 0.93,0.47 1.9,0.6 2.93,0.42 2.45,-0.48 4.05,-2.97 3.47,-5.39l0 -0z"/>
 </g>
</svg>
