<?xml version="1.0" encoding="UTF-8"?>
<!DOCTYPE svg PUBLIC "-//W3C//DTD SVG 1.1//EN" "http://www.w3.org/Graphics/SVG/1.1/DTD/svg11.dtd">
<!-- Creator: CorelDRAW -->
<svg xmlns="http://www.w3.org/2000/svg" xml:space="preserve" width="7.7497mm" height="7.7497mm" version="1.1" style="shape-rendering:geometricPrecision; text-rendering:geometricPrecision; image-rendering:optimizeQuality; fill-rule:evenodd; clip-rule:evenodd"
viewBox="0 0 11.94 11.94"
 xmlns:xlink="http://www.w3.org/1999/xlink"
 xmlns:xodm="http://www.corel.com/coreldraw/odm/2003">
 <defs>
  <style type="text/css">
   <![CDATA[
    .fil0 {fill:#E4EEE6}
   ]]>
  </style>
 </defs>
 <g id="Layer_x0020_1">
  <metadata id="CorelCorpID_0Corel-Layer"/>
  <path class="fil0" d="M3.08 0l5.78 0c1.7,0 3.08,1.39 3.08,3.08l0 5.78c0,1.7 -1.39,3.08 -3.08,3.08l-5.78 0c-1.7,0 -3.08,-1.39 -3.08,-3.08l0 -5.78c0,-1.7 1.39,-3.08 3.08,-3.08zm7.03 4.27c0,0 -0.08,-0.59 -0.34,-0.84 -0.32,-0.34 -0.68,-0.34 -0.85,-0.36 -1.18,-0.09 -2.96,-0.09 -2.96,-0.09l-0 0c0,0 -1.77,0 -2.96,0.09 -0.17,0.02 -0.53,0.02 -0.85,0.36 -0.25,0.26 -0.34,0.84 -0.34,0.84 0,0 -0.08,0.69 -0.08,1.38l0 0.65c0,0.69 0.08,1.38 0.08,1.38 0,0 0.08,0.59 0.34,0.84 0.32,0.34 0.74,0.33 0.93,0.36 0.68,0.07 2.87,0.09 2.87,0.09 0,0 1.78,-0 2.96,-0.09 0.17,-0.02 0.53,-0.02 0.85,-0.36 0.25,-0.26 0.34,-0.84 0.34,-0.84 0,0 0.08,-0.69 0.08,-1.38l0 -0.65c0,-0.69 -0.08,-1.38 -0.08,-1.38zm-5.01 2.8l0 -2.39 2.28 1.2 -2.28 1.19z"/>
 </g>
</svg>
