<svg width="20" height="20" viewBox="0 0 20 20" fill="none" xmlns="http://www.w3.org/2000/svg">
<path fill-rule="evenodd" clip-rule="evenodd" d="M17.7166 16.532C17.7012 17.4643 17.4592 17.7294 16.5281 17.7294C14.3459 17.7294 12.1688 17.7294 9.98655 17.7294C7.82352 17.7294 5.64513 17.7294 3.46417 17.7294C2.55107 17.7294 2.29365 17.463 2.29365 16.532C2.29365 14.1308 2.30134 11.6757 2.2578 9.24121C2.2578 8.54966 2.44733 8.3947 3.08638 8.42159C3.99949 8.48178 4.01742 8.44592 3.9124 9.33726C3.55894 12.4377 5.69636 15.4332 8.73791 16.03C11.8768 16.6344 15.0131 14.7519 15.8737 11.7385C16.1311 10.7959 16.2093 9.79573 16.0108 8.85958C15.9429 8.51508 16.0287 8.44592 16.3386 8.44592C17.7166 8.34347 17.7166 8.31658 17.7166 9.74963C17.7166 11.9857 17.7166 14.2665 17.7166 16.5307V16.532ZM10.0147 6.11641C12.0984 6.11641 13.8913 7.92085 13.8554 10.0019C13.8375 12.1355 12.0625 13.9054 9.94301 13.8721C7.84017 13.8183 6.06647 12.0471 6.11769 9.94941C6.1702 7.85042 7.92854 6.11641 10.0147 6.11641ZM15.7354 2.25523C17.7166 2.25523 17.7166 2.25523 17.7166 4.24025C17.7166 6.183 17.7166 6.183 15.77 6.183C13.8042 6.183 13.8042 6.183 13.8042 4.21464C13.8042 2.25395 13.8042 2.25395 15.7354 2.25395V2.25523ZM17.3554 0.00128066C12.4608 0.00128066 7.54818 0.00128066 2.65352 0.00128066C0.905423 0.00128066 0 0.916949 0 2.67913C0 5.10469 0 7.53922 0 10.0006C0 12.4377 0 14.9171 0 17.3759C0 19.0715 0.931037 20 2.56899 20C7.51361 20 12.4262 20 17.3567 20C19.0626 20 20 19.0702 20 17.3503C20 12.4364 20 7.53794 20 2.6151C20 0.915669 19.0626 0 17.3567 0L17.3554 0.00128066Z" fill="white"/>
</svg>
