<svg width="20" height="20" viewBox="0 0 20 20" fill="none" xmlns="http://www.w3.org/2000/svg">
<path fill-rule="evenodd" clip-rule="evenodd" d="M10.9927 8.526C11.2591 8.23378 11.474 7.93296 11.749 7.67512C12.5827 6.893 13.5625 6.49764 14.7142 6.50623C15.3502 6.51483 15.9691 6.5578 16.5793 6.72969C17.9716 7.13365 18.7795 8.08767 19.1663 9.45423C19.4585 10.477 19.5101 11.5256 19.5101 12.5741C19.5101 14.7916 19.5015 17.009 19.5101 19.2265C19.5101 19.4327 19.4499 19.4929 19.2437 19.4843C18.1006 19.4757 16.9575 19.4757 15.8144 19.4843C15.6167 19.4843 15.5737 19.4242 15.5737 19.2351C15.5823 17.1208 15.5823 15.015 15.5737 12.9007C15.5737 12.3679 15.5393 11.8436 15.3932 11.3279C15.1182 10.3825 14.4392 9.90116 13.4508 9.95273C12.0928 10.0215 11.3881 10.6919 11.2162 12.0756C11.1732 12.4022 11.156 12.7374 11.156 13.064C11.156 15.1182 11.156 17.1723 11.1646 19.2179C11.1646 19.4242 11.113 19.4843 10.9067 19.4843C9.75505 19.4757 8.60335 19.4757 7.45165 19.4843C7.27116 19.4843 7.211 19.4327 7.211 19.2523C7.2196 15.1869 7.2196 11.1216 7.211 7.06489C7.211 6.86721 7.27976 6.81564 7.46884 6.81564C8.56038 6.82424 9.65191 6.82424 10.752 6.81564C10.9497 6.81564 11.0013 6.87581 11.0013 7.07348C10.9927 7.55479 11.0013 8.04469 11.0013 8.526H10.9927ZM5.04512 2.7847C5.04512 4.04813 4.02235 5.07091 2.75892 5.0795C1.51268 5.0795 0.481306 4.04813 0.481306 2.81049C0.472711 1.55565 1.51268 0.52428 2.76751 0.52428C4.01375 0.52428 5.04512 1.54706 5.04512 2.7933V2.7847ZM4.72712 13.1758C4.72712 15.1869 4.72712 17.1981 4.73571 19.2093C4.73571 19.4327 4.68414 19.5015 4.45208 19.5015C3.30898 19.4843 2.16588 19.4929 1.02278 19.5015C0.842286 19.5015 0.782123 19.4585 0.782123 19.2694C0.790717 15.1955 0.790717 11.1302 0.782123 7.0563C0.782123 6.8844 0.825096 6.82424 1.00559 6.83283C2.16588 6.84143 3.32617 6.84143 4.47787 6.83283C4.70133 6.83283 4.72712 6.91878 4.72712 7.10786C4.71852 9.13623 4.72712 11.1646 4.72712 13.193V13.1758Z" fill="white"/>
</svg>
