<svg width="21" height="20" viewBox="0 0 21 20" fill="none" xmlns="http://www.w3.org/2000/svg">
<path fill-rule="evenodd" clip-rule="evenodd" d="M0.0108447 16.3883C1.50741 16.4859 2.94976 16.2581 4.31619 15.6399C4.93434 15.3796 5.48742 15.0434 6.0405 14.6095C5.38982 14.5879 4.79336 14.4469 4.26197 14.1649C3.34017 13.7093 2.68949 12.961 2.28823 11.974C2.20148 11.7571 2.20148 11.7571 2.44006 11.7679C3.09074 11.833 3.57875 11.8113 3.95832 11.6703C3.60044 11.5401 3.26426 11.4751 2.98229 11.2907C1.60502 10.5423 0.878421 9.34924 0.748285 7.77657C0.73744 7.59219 0.780819 7.5705 0.954334 7.64642C1.44235 7.90673 1.96289 8.03688 2.5702 8.09111C2.30992 7.85249 2.08218 7.65727 1.87613 7.45119C0.73744 6.2256 0.466322 4.26247 1.22545 2.77657C1.3339 2.58134 1.36643 2.58134 1.50741 2.73319C3.42693 4.94577 5.82361 6.30152 8.69746 6.7462C8.99026 6.80043 9.3156 6.81128 9.60841 6.86551C9.81446 6.89805 9.83615 6.81128 9.80361 6.64859C9.49996 4.91323 10.3133 3.19957 11.8533 2.33189C13.4149 1.42082 15.4537 1.71367 16.7117 2.93926C16.8635 3.06941 16.9937 3.10195 17.1672 3.04772C17.9371 2.88503 18.6637 2.59219 19.347 2.20174C19.4012 2.18004 19.4446 2.14751 19.5205 2.09328C19.2277 3.06941 18.642 3.78525 17.7745 4.37093C18.577 4.29501 19.2927 4.06725 19.9976 3.78525C20.0085 3.88286 19.9326 3.94794 19.8892 4.02386C19.412 4.68547 18.8481 5.27115 18.1757 5.77007C18.0564 5.86768 18.0239 5.9436 18.0239 6.10629C18.0781 9.13232 17.1129 11.8221 15.1826 14.1649C13.3715 16.3015 11.0508 17.5813 8.2962 18.0369C5.36813 18.4924 2.61357 17.9935 0.0867576 16.4317C0.0542235 16.41 0.0216894 16.3883 0 16.3883H0.0108447Z" fill="white"/>
</svg>
