<svg width="20" height="21" viewBox="0 0 20 21" fill="none" xmlns="http://www.w3.org/2000/svg">
<path fill-rule="evenodd" clip-rule="evenodd" d="M11.4039 18.1526C10.9259 18.2445 10.4756 18.2858 10.255 18.2537C8.49488 18.2537 7.07484 17.863 5.75131 17.1002C5.56289 16.9853 5.42503 16.9531 5.2412 17.0174C4.34047 17.238 3.45812 17.4862 2.56198 17.716C2.37815 17.7711 2.35977 17.739 2.40113 17.5459C2.6401 16.7279 2.86069 15.8869 3.12264 15.0276C3.17778 14.7978 3.164 14.6231 3.01694 14.4347C1.21087 11.4982 1.289 7.86304 3.31106 5.14246C5.42043 2.32537 8.31105 1.15809 11.7531 1.89338C15.1447 2.6057 17.3184 4.81617 18.0905 8.18474C19.1842 12.8033 16.0684 17.3989 11.3993 18.1572L11.4039 18.1526ZM12.6125 14.7334C12.2633 14.7656 11.9094 14.7059 11.5739 14.5956C9.28991 13.9338 7.56197 12.5322 6.17411 10.625C5.6594 9.92646 5.16767 9.1636 5.01602 8.28124C4.80922 7.24724 5.13091 6.32352 5.91675 5.61121C6.17411 5.36764 6.93697 5.25275 7.24947 5.4136C7.34598 5.49632 7.40572 5.58363 7.47006 5.68014C7.75039 6.39246 8.0537 7.04963 8.33863 7.72058C8.37999 7.85845 8.37539 8.00551 8.29727 8.14338C8.14561 8.45587 7.91124 8.70863 7.68605 8.97058C7.49304 9.13143 7.49304 9.31984 7.62631 9.52205C8.44432 10.8823 9.55186 11.8612 11.0362 12.4448C11.2522 12.5368 11.4177 12.5 11.5509 12.33C11.8083 12.0312 12.0565 11.7095 12.2954 11.397C12.4379 11.1994 12.6355 11.1673 12.8515 11.2592C13.3386 11.4798 13.8212 11.7095 14.2899 11.9209C14.4186 11.9899 14.5105 12.0358 14.6254 12.0772C15.1171 12.3254 15.1171 12.3575 15.062 12.886C14.9976 13.9338 14.198 14.4623 13.2835 14.7151C13.0353 14.7656 12.8377 14.7656 12.6217 14.738L12.6125 14.7334ZM19.7311 7.7068C18.6465 3.16636 14.7265 0.0689338 9.99763 0C9.37263 0.0321691 8.70168 0.0735293 8.09046 0.19761C1.46363 1.52114 -1.94629 8.83731 1.25683 14.7334C1.37172 14.9035 1.37172 15.0459 1.34874 15.2298C0.879993 16.7509 0.452604 18.3226 0.039001 19.8667C-0.0299327 20.1333 -0.0299327 20.1333 0.22742 20.0689C1.84507 19.6231 3.44433 19.2187 5.06198 18.8143C5.20444 18.773 5.30095 18.773 5.42043 18.8373C7.49304 19.8897 9.68054 20.1838 11.9737 19.7656C17.4471 18.6994 21.0362 13.1296 19.7311 7.71139V7.7068Z" fill="white"/>
</svg>
